<?xml version="1.0" encoding="utf-8"?>
<!-- Generator: Adobe Illustrator 20.1.0, SVG Export Plug-In . SVG Version: 6.00 Build 0)  -->
<svg version="1.1" xmlns="http://www.w3.org/2000/svg" xmlns:xlink="http://www.w3.org/1999/xlink" x="0px" y="0px"
	 viewBox="0 0 620.3 135.9" style="enable-background:new 0 0 620.3 135.9;" xml:space="preserve">
<style type="text/css">
	.st0{fill:none;}
	.st1{fill:#FFFFFF;}
	.st2{font-family:'LemonMilk';}
	.st3{font-size:72.8591px;}
	.st4{font-family:'SegoeUI-Semilight';}
	.st5{font-size:48px;}
	.st6{letter-spacing:-1;}
</style>
<g id="Layer_3">
	<g>
		<polygon class="st0" points="206.2,114.5 151.4,58.7 116,93.6 137.2,114.5 		"/>
		<polygon class="st0" points="70.6,99.3 86.4,115 109,115 81,88.1 		"/>
		<polygon class="st0" points="9.2,115 80.8,115 45,79.2 		"/>
		<polygon class="st0" points="71.8,50.2 93.8,71.8 139.4,27.6 117.5,4.7 		"/>
		<path class="st1" d="M80.8,82.4l-13.1,14L45,73.7L3.6,115h0L0,118.7h90h28.5l-0.7-0.7L80.8,82.4z M9.2,115L45,79.2L80.8,115H9.2z
			 M86.4,115L70.6,99.3L81,88.1l28,26.9H86.4z"/>
		<path class="st1" d="M248.2,118.7h5.5L151.5,15.9l-9.4,9.1L117.3,0L69.1,47.5l-10.2-10L13.1,83h5.5l40.3-40.1v-0.3l76.2,76.1h82.1
			l-4.4-3.9l-46.5-46.6l6.7-6.6l0-0.2l57,57.3h5.5l-62.4-62.8l-9.5,9.5l-12.2-12.2l-38.6,37.4l-16.3-16l54.9-53.1L248.2,118.7z
			 M151.4,58.7l54.7,55.8h-68.9L116,93.6L151.4,58.7z M93.8,71.8l-22-21.6l45.8-45.5l21.8,22.9L93.8,71.8z"/>
	</g>
</g>
<g id="Mountain">
	<text transform="matrix(1.0206 0 0 1 209.3448 73.5446)" class="st1 st2 st3">big sky</text>
	<text transform="matrix(1.0124 0 0 1 255.58 117.0403)" class="st1 st4 st5 st6">INTERNET DESIGN</text>
</g>
<g id="Big_Sky">
</g>
</svg>
