<svg xmlns="http://www.w3.org/2000/svg" viewBox="0 0 620.27 135.88"><defs><style>.cls-1{fill:none;}.cls-2{fill:#231f20;}</style></defs><title>Big-Sky-Logo</title><g id="Layer_3" data-name="Layer 3"><polygon class="cls-1" points="206.15 114.53 151.42 58.75 115.98 93.62 137.25 114.53 206.15 114.53"/><polygon class="cls-1" points="70.63 99.3 86.35 115.02 108.98 115.02 81.02 88.13 70.63 99.3"/><polygon class="cls-1" points="9.16 115 80.85 115 45 79.15 9.16 115"/><polygon class="cls-1" points="71.8 50.18 93.79 71.8 139.36 27.65 117.55 4.73 71.8 50.18"/><path d="M80.85,82.43l-13.07,14L45,73.66,3.65,115h0L0,118.66H118.52l-.74-.71ZM9.16,115,45,79.15,80.85,115Zm77.2,0L70.63,99.3,81,88.13,109,115Z"/><path d="M248.25,118.66h5.51L151.49,15.89,142.1,25,117.27,0,69.06,47.49l-10.17-10L13.11,83h5.46L58.89,42.91v-.34l76.2,76.1h82.14l-4.36-3.91L166.4,68.17l6.66-6.61v-.18l57,57.28h5.51L173.13,55.91l-9.52,9.47-12.2-12.23L112.81,90.5l-16.31-16,54.92-53.1ZM151.42,58.75l54.73,55.78H137.24L116,93.62ZM93.79,71.8l-22-21.62L117.55,4.73l21.81,22.92Z"/></g><g id="Mountain"><path class="cls-2" d="M226.81,16.39a14.58,14.58,0,0,1,14.56,14,16.21,16.21,0,0,1-1,4.73C247,37.94,253,44.41,253,53.48a19,19,0,0,1-6,14.08,19.82,19.82,0,0,1-14.38,5.87H212.29V16.39h14.53Zm0,18.25a3.4,3.4,0,0,0,3.52-3.34,3.53,3.53,0,0,0-3.52-3.52h-2.91v6.86Zm14.56,18.89a8.21,8.21,0,0,0-2.58-6.08c-1.71-1.67-3.78-1.78-6.17-1.78h-8.72V62h8.72A8.68,8.68,0,0,0,241.38,53.52Z"/><path class="cls-2" d="M256.68,16.21h11.73V73.54H256.68Z"/><path class="cls-2" d="M301.61,16a29,29,0,0,1,11.48,2.28,31.44,31.44,0,0,1,9.48,6.19l-8.35,8.18a17.39,17.39,0,0,0-12.53-5.12,17.16,17.16,0,0,0-12.53,5.12,17.09,17.09,0,0,0,0,24.54A18,18,0,0,0,312,59.07a17.5,17.5,0,0,0,6.39-8.32H301.65V39.19h29a26.76,26.76,0,0,1,.58,5.76A27.52,27.52,0,0,1,322.5,65.4a29.94,29.94,0,0,1-41.8,0A27.62,27.62,0,0,1,272,44.95a27.76,27.76,0,0,1,8.68-20.49,28.69,28.69,0,0,1,20.88-8.54Z"/><path class="cls-2" d="M373.14,62.16a5.91,5.91,0,0,0,5.92-5.8c0-2.45-1-4-3-4.73-4.21-1.53-3.2-1.17-7.3-2.56a23.32,23.32,0,0,1-11-7.93,12.83,12.83,0,0,1-2.4-7.93,16.57,16.57,0,0,1,5.23-12.27,17.93,17.93,0,0,1,25.09,0,16.57,16.57,0,0,1,5.23,12.27h-11.8a5.9,5.9,0,0,0-11.8,0,5.18,5.18,0,0,0,2.54,4.69c3.49,2.21,3.09,1.78,7.26,3a22.59,22.59,0,0,1,11.37,7.54,12.47,12.47,0,0,1,2.47,8,16.59,16.59,0,0,1-5.23,12.31,17.93,17.93,0,0,1-25.09,0,16.59,16.59,0,0,1-5.23-12.31h11.84a5.86,5.86,0,0,0,5.92,5.8Z"/><path class="cls-2" d="M407.33,16.21V38l12.89-21.77h13.55L416.48,45.34l20.08,28.21H422.29l-15-21.06V73.54H395.6V16.21Z"/><path class="cls-2" d="M452,16.21l10.1,18.18,10.1-18.18h13.33L467.95,47.83V73.54H456.26V47.83L438.72,16.21Z"/><path class="cls-2" d="M263.15,117H260V83.43h3.16Z"/><path class="cls-2" d="M293.84,117,275,90.06q-.36-.52-.7-1.05A6.83,6.83,0,0,1,273.7,88h-.12q0,.42.08,1.17t0,1.88v26h-3.16V83.43H274l18.58,26.65q.43.63.77,1.18l.63,1h.12q-.09-.77-.14-1.73t0-2.13v-25h3.18V117Z"/><path class="cls-2" d="M314.22,86.29V117h-3.16V86.29h-9.8V83.43H324v2.86Z"/><path class="cls-2" d="M328.18,117V83.43h16.59v2.86H331.34V98.62h12.43v2.81H331.34V114.2h14.19V117Z"/><path class="cls-2" d="M369.7,117l-5.12-9.63A19.18,19.18,0,0,0,363.1,105a7.51,7.51,0,0,0-1.47-1.54,4.91,4.91,0,0,0-1.63-.82,7.07,7.07,0,0,0-1.93-.25h-3.75V117h-3.16V83.43H361a12.32,12.32,0,0,1,3.71.56,9.91,9.91,0,0,1,3.19,1.66,8.15,8.15,0,0,1,2.24,2.77,8.45,8.45,0,0,1,.84,3.87,9.53,9.53,0,0,1-.55,3.28,8.38,8.38,0,0,1-1.55,2.66,9.16,9.16,0,0,1-2.44,2,11.72,11.72,0,0,1-3.24,1.21v.09a5.26,5.26,0,0,1,1.26.73,7.49,7.49,0,0,1,1.1,1.08,13.47,13.47,0,0,1,1.06,1.45q.52.82,1.09,1.88L373.4,117ZM354.32,86.29V99.58H360a9.53,9.53,0,0,0,3.13-.49,7,7,0,0,0,2.43-1.41,6.32,6.32,0,0,0,1.57-2.2,7.25,7.25,0,0,0,.56-2.91A5.81,5.81,0,0,0,365.75,88a8.12,8.12,0,0,0-5.52-1.68Z"/><path class="cls-2" d="M401,117l-18.89-27q-.36-.52-.7-1.05a6.83,6.83,0,0,1-.56-1.05h-.12q0,.42.08,1.17t0,1.88v26h-3.16V83.43h3.49l18.58,26.65q.43.63.77,1.18l.63,1h.12q-.1-.77-.14-1.73t0-2.13v-25h3.18V117Z"/><path class="cls-2" d="M411.67,117V83.43h16.59v2.86H414.83V98.62h12.43v2.81H414.83V114.2H429V117Z"/><path class="cls-2" d="M444.48,86.29V117h-3.16V86.29h-9.8V83.43H454.3v2.86Z"/><path class="cls-2" d="M470.3,117V83.43h8.95q8.73,0,13.19,4.14t4.46,12.22a19.3,19.3,0,0,1-1.25,7.08,15.07,15.07,0,0,1-3.59,5.45,16.11,16.11,0,0,1-5.7,3.49,21.75,21.75,0,0,1-7.55,1.23Zm3.16-30.75V114.2h5.22a19.5,19.5,0,0,0,6.28-.94,12.62,12.62,0,0,0,4.69-2.75,11.81,11.81,0,0,0,2.93-4.49,17.31,17.31,0,0,0,1-6.14q0-13.59-14.55-13.59Z"/><path class="cls-2" d="M502.25,117V83.43h16.59v2.86H505.41V98.62h12.43v2.81H505.41V114.2H519.6V117Z"/><path class="cls-2" d="M523.91,112.12a12,12,0,0,0,1.89,1.14,15.36,15.36,0,0,0,4.28,1.36,13.14,13.14,0,0,0,2.09.18q3.87,0,5.79-1.48a5,5,0,0,0,1.92-4.24,5.62,5.62,0,0,0-.45-2.33,5.76,5.76,0,0,0-1.4-1.86,14.48,14.48,0,0,0-2.4-1.72q-1.45-.86-3.42-1.93Q530,100,528.47,99a13.66,13.66,0,0,1-2.54-2.13,7.19,7.19,0,0,1-1.45-2.36,8.36,8.36,0,0,1-.46-2.88A7.54,7.54,0,0,1,524.9,88a8.56,8.56,0,0,1,2.37-2.75,11,11,0,0,1,3.5-1.75,14.66,14.66,0,0,1,4.28-.61,17.88,17.88,0,0,1,6.71,1.1v3.45a14.08,14.08,0,0,0-7.07-1.71,10.9,10.9,0,0,0-2.86.36,7.49,7.49,0,0,0-2.35,1.07,5.18,5.18,0,0,0-1.59,1.75,4.9,4.9,0,0,0-.58,2.43,5.9,5.9,0,0,0,.39,2.26A5.38,5.38,0,0,0,529,95.36,12,12,0,0,0,531.25,97q1.41.83,3.45,1.91a41.13,41.13,0,0,1,3.73,2.19,14.42,14.42,0,0,1,2.65,2.23,8.18,8.18,0,0,1,1.58,2.46,7.72,7.72,0,0,1,.52,2.89,8.63,8.63,0,0,1-.83,3.88,7.58,7.58,0,0,1-2.33,2.78,10.65,10.65,0,0,1-3.56,1.66,17.09,17.09,0,0,1-6.45.43q-1.11-.13-2.25-.37a21.36,21.36,0,0,1-2.17-.59,7.84,7.84,0,0,1-1.67-.74Z"/><path class="cls-2" d="M551.92,117h-3.16V83.43h3.16Z"/><path class="cls-2" d="M584.32,114.72a22.57,22.57,0,0,1-11.11,2.91,16.79,16.79,0,0,1-6.64-1.25,14.38,14.38,0,0,1-5-3.49,15.35,15.35,0,0,1-3.17-5.34,20.29,20.29,0,0,1-1.1-6.83,20.61,20.61,0,0,1,.53-4.73,18.36,18.36,0,0,1,1.57-4.27,16.44,16.44,0,0,1,2.53-3.61,15.78,15.78,0,0,1,3.43-2.79,16.55,16.55,0,0,1,4.26-1.8,19,19,0,0,1,5-.63,21.77,21.77,0,0,1,9,1.78v3.45a19.26,19.26,0,0,0-9.4-2.39,13.63,13.63,0,0,0-5.62,1.13,12.59,12.59,0,0,0-4.28,3.09,14,14,0,0,0-2.74,4.65,17.33,17.33,0,0,0-1,5.82,18.33,18.33,0,0,0,.82,5.75,12.86,12.86,0,0,0,2.5,4.56,11.44,11.44,0,0,0,4.11,3,13.88,13.88,0,0,0,5.65,1.08,15.1,15.1,0,0,0,7.5-1.78V102.77h-7.74V99.93h10.89Z"/><path class="cls-2" d="M614,117l-18.89-27q-.36-.52-.7-1.05A6.83,6.83,0,0,1,593.9,88h-.12q0,.42.08,1.17t0,1.88v26h-3.16V83.43h3.49l18.58,26.65q.43.63.77,1.18l.63,1h.12q-.1-.77-.14-1.73t0-2.13v-25h3.18V117Z"/></g></svg>